{"accessors" : [{"bufferView" : 0, "byteOffset" : 0, "componentType" : 5123, "count" : 54, "type" : "SCALAR", "max" : [53], "min" : [0]}, {"bufferView" : 1, "byteOffset" : 0, "componentType" : 5126, "count" : 54, "type" : "VEC3", "max" : [5, 4.5, 5.199999809265137], "min" : [-5, 0, 4.40000057220459], "name" : "POSITION"}, {"bufferView" : 1, "byteOffset" : 12, "componentType" : 5126, "count" : 54, "type" : "VEC3", "max" : [0.2938695549964905, 1.0000044107437134, 1.0000044107437134], "min" : [-0.0710844025015831, 0, -1.0000044107437134], "name" : "NORMAL"}, {"bufferView" : 1, "byteOffset" : 24, "componentType" : 5126, "count" : 54, "type" : "VEC2", "max" : [0.9880902171134949, -0.16690057516098022], "min" : [-0.01276475191116333, -0.7280411124229431], "name" : "TEXCOORD_0"}, {"bufferView" : 0, "byteOffset" : 108, "componentType" : 5123, "count" : 54, "type" : "SCALAR", "max" : [53], "min" : [0]}, {"bufferView" : 2, "byteOffset" : 0, "componentType" : 5126, "count" : 54, "type" : "VEC3", "max" : [-4.400000095367432, 4.5, 5], "min" : [-5.199999809265137, 0, -5], "name" : "POSITION"}, {"bufferView" : 2, "byteOffset" : 12, "componentType" : 5126, "count" : 54, "type" : "VEC3", "max" : [1.0000044107437134, 1.0000044107437134, 0.29386937618255615], "min" : [-1.0000044107437134, 0, -0.07108433544635773], "name" : "NORMAL"}, {"bufferView" : 2, "byteOffset" : 24, "componentType" : 5126, "count" : 54, "type" : "VEC2", "max" : [0.9880902171134949, -0.16690057516098022], "min" : [-0.01276475191116333, -0.7280411124229431], "name" : "TEXCOORD_0"}, {"bufferView" : 0, "byteOffset" : 216, "componentType" : 5123, "count" : 30, "type" : "SCALAR", "max" : [29], "min" : [0]}, {"bufferView" : 3, "byteOffset" : 0, "componentType" : 5126, "count" : 30, "type" : "VEC3", "max" : [5, 0, 5], "min" : [-5, -0.4999999403953552, -5], "name" : "POSITION"}, {"bufferView" : 3, "byteOffset" : 12, "componentType" : 5126, "count" : 30, "type" : "VEC3", "max" : [1.0000044107437134, 1.0000044107437134, 1.0000044107437134], "min" : [-1.0000044107437134, 0, -1.0000044107437134], "name" : "NORMAL"}, {"bufferView" : 3, "byteOffset" : 24, "componentType" : 5126, "count" : 30, "type" : "VEC2", "max" : [0.875, -0.125], "min" : [0.125, -0.625], "name" : "TEXCOORD_0"}], "asset" : {"generator" : "Aspose.3D 22.7", "version" : "2.0"}, "buffers" : [{"uri" : "data:application/octet-stream;base64,", "byteLength" : 4708}], "bufferViews" : [{"buffer" : 0, "byteOffset" : 0, "byteLength" : 276, "target" : 34963}, {"buffer" : 0, "byteOffset" : 280, "byteLength" : 1728, "byteStride" : 32, "target" : 34962}, {"buffer" : 0, "byteOffset" : 2012, "byteLength" : 1728, "byteStride" : 32, "target" : 34962}, {"buffer" : 0, "byteOffset" : 3744, "byteLength" : 960, "byteStride" : 32, "target" : 34962}], "images" : [{"uri" : "C:/Users/David/Documents/Unity/MazeRunner/Assets/Resources/pavement_square_marks_01_1.jpg"}], "materials" : [{"name" : "lambert6", "pbrMetallicRoughness" : {"baseColorFactor" : [1, 1, 1, 1], "baseColorTexture" : {"index" : 0, "texCoord" : 0}, "metallicFactor" : 0, "roughnessFactor" : 0}, "emissiveFactor" : [0, 0, 0], "alphaMode" : "OPAQUE", "doubleSided" : false}, {"name" : "lambert6", "pbrMetallicRoughness" : {"baseColorFactor" : [1, 1, 1, 1], "baseColorTexture" : {"index" : 0, "texCoord" : 0}, "metallicFactor" : 0, "roughnessFactor" : 0}, "emissiveFactor" : [0, 0, 0], "alphaMode" : "OPAQUE", "doubleSided" : false}, {"name" : "lambert2", "pbrMetallicRoughness" : {"baseColorFactor" : [0.5, 0.5, 0.5, 1], "metallicFactor" : 0, "roughnessFactor" : 0}, "emissiveFactor" : [0, 0, 0], "alphaMode" : "OPAQUE", "doubleSided" : false}], "meshes" : [{"primitives" : [{"attributes" : {"POSITION" : 1, "NORMAL" : 2, "TEXCOORD_0" : 3}, "indices" : 0, "material" : 0, "mode" : 4}], "name" : ""}, {"primitives" : [{"attributes" : {"POSITION" : 5, "NORMAL" : 6, "TEXCOORD_0" : 7}, "indices" : 4, "material" : 1, "mode" : 4}], "name" : ""}, {"primitives" : [{"attributes" : {"POSITION" : 9, "NORMAL" : 10, "TEXCOORD_0" : 11}, "indices" : 8, "material" : 2, "mode" : 4}], "name" : ""}], "nodes" : [{"mesh" : 0, "name" : "SWall18"}, {"mesh" : 1, "name" : "SWall19"}, {"mesh" : 2, "name" : "fTile"}], "samplers" : [{"magFilter" : 9729, "minFilter" : 9729, "wrapS" : 10497, "wrapT" : 10497}], "scene" : 0, "scenes" : [{"nodes" : [0, 1, 2]}], "textures" : [{"sampler" : 0, "source" : 0, "name" : "file4"}]}