{"accessors" : [{"bufferView" : 0, "byteOffset" : 0, "componentType" : 5123, "count" : 54, "type" : "SCALAR", "max" : [53], "min" : [0]}, {"bufferView" : 1, "byteOffset" : 0, "componentType" : 5126, "count" : 54, "type" : "VEC3", "max" : [5.199999809265137, 4.5, 5], "min" : [4.40000057220459, 0, -5], "name" : "POSITION"}, {"bufferView" : 1, "byteOffset" : 12, "componentType" : 5126, "count" : 54, "type" : "VEC3", "max" : [1.0000044107437134, 1.0000044107437134, 0.2938693165779114], "min" : [-1.0000044107437134, -6.929732876415073E-08, -0.07108435779809952], "name" : "NORMAL"}, {"bufferView" : 1, "byteOffset" : 24, "componentType" : 5126, "count" : 54, "type" : "VEC2", "max" : [0.9880902171134949, -0.16690057516098022], "min" : [-0.01276475191116333, -0.7280411124229431], "name" : "TEXCOORD_0"}], "asset" : {"generator" : "Aspose.3D 22.7", "version" : "2.0"}, "buffers" : [{"uri" : "data:application/octet-stream;base64,", "byteLength" : 1844}], "bufferViews" : [{"buffer" : 0, "byteOffset" : 0, "byteLength" : 108, "target" : 34963}, {"buffer" : 0, "byteOffset" : 112, "byteLength" : 1728, "byteStride" : 32, "target" : 34962}], "materials" : [{"name" : "lambert6", "pbrMetallicRoughness" : {"baseColorFactor" : [0.5, 0.5, 0.5, 1], "metallicFactor" : 0, "roughnessFactor" : 0}, "emissiveFactor" : [0, 0, 0], "alphaMode" : "OPAQUE", "doubleSided" : false}], "meshes" : [{"primitives" : [{"attributes" : {"POSITION" : 1, "NORMAL" : 2, "TEXCOORD_0" : 3}, "indices" : 0, "material" : 0, "mode" : 4}], "name" : ""}], "nodes" : [{"mesh" : 0, "name" : "eWall"}], "scene" : 0, "scenes" : [{"nodes" : [0]}]}