{"accessors" : [{"bufferView" : 0, "byteOffset" : 0, "componentType" : 5123, "count" : 264, "type" : "SCALAR", "max" : [263], "min" : [0]}, {"bufferView" : 1, "byteOffset" : 0, "componentType" : 5126, "count" : 264, "type" : "VEC3", "max" : [0.770650327205658, 5.079370975494385, 0.7659235000610352], "min" : [-0.7828643918037415, 0, -0.7659235000610352], "name" : "POSITION"}, {"bufferView" : 1, "byteOffset" : 12, "componentType" : 5126, "count" : 264, "type" : "VEC3", "max" : [1.0000044107437134, 1.0000044107437134, 1.0000044107437134], "min" : [-1.0000044107437134, -1.0000044107437134, -1.0000044107437134], "name" : "NORMAL"}, {"bufferView" : 1, "byteOffset" : 24, "componentType" : 5126, "count" : 264, "type" : "VEC2", "max" : [0.9960318207740784, -0], "min" : [0.125, -1.2522400617599487], "name" : "TEXCOORD_0"}], "asset" : {"generator" : "Aspose.3D 22.7", "version" : "2.0"}, "buffers" : [{"uri" : "data:application/octet-stream;base64,", "byteLength" : 8984}], "bufferViews" : [{"buffer" : 0, "byteOffset" : 0, "byteLength" : 528, "target" : 34963}, {"buffer" : 0, "byteOffset" : 532, "byteLength" : 8448, "byteStride" : 32, "target" : 34962}], "materials" : [{"name" : "lambert1", "pbrMetallicRoughness" : {"baseColorFactor" : [0.5, 0.5, 0.5, 1], "metallicFactor" : 0, "roughnessFactor" : 0}, "emissiveFactor" : [0, 0, 0], "alphaMode" : "OPAQUE", "doubleSided" : false}], "meshes" : [{"primitives" : [{"attributes" : {"POSITION" : 1, "NORMAL" : 2, "TEXCOORD_0" : 3}, "indices" : 0, "material" : 0, "mode" : 4}], "name" : ""}], "nodes" : [{"mesh" : 0, "name" : "polySurface4"}], "scene" : 0, "scenes" : [{"nodes" : [0]}]}